<mxfile host="65bd71144e">
    <diagram id="l3JZxejhPwoZb-qiFefB" name="Page-1">
        <mxGraphModel dx="796" dy="689" grid="1" gridSize="10" guides="1" tooltips="1" connect="1" arrows="1" fold="1" page="1" pageScale="1" pageWidth="850" pageHeight="1100" math="0" shadow="0">
            <root>
                <mxCell id="0"/>
                <mxCell id="1" parent="0"/>
                <mxCell id="2" value="" style="endArrow=none;html=1;" parent="1" edge="1">
                    <mxGeometry width="50" height="50" relative="1" as="geometry">
                        <mxPoint x="80" y="160" as="sourcePoint"/>
                        <mxPoint x="600" y="160" as="targetPoint"/>
                    </mxGeometry>
                </mxCell>
                <mxCell id="3" value="" style="endArrow=none;html=1;" parent="1" edge="1">
                    <mxGeometry width="50" height="50" relative="1" as="geometry">
                        <mxPoint x="160" y="200" as="sourcePoint"/>
                        <mxPoint x="360" y="200" as="targetPoint"/>
                    </mxGeometry>
                </mxCell>
                <mxCell id="4" value="" style="endArrow=none;html=1;" parent="1" edge="1">
                    <mxGeometry width="50" height="50" relative="1" as="geometry">
                        <mxPoint x="160" y="240" as="sourcePoint"/>
                        <mxPoint x="560" y="240" as="targetPoint"/>
                    </mxGeometry>
                </mxCell>
            </root>
        </mxGraphModel>
    </diagram>
    <diagram id="m8uQh5az6L6xjyUbhFWk" name="Page-2">
        <mxGraphModel dx="796" dy="689" grid="1" gridSize="10" guides="1" tooltips="1" connect="1" arrows="1" fold="1" page="1" pageScale="1" pageWidth="850" pageHeight="1100" math="0" shadow="0">
            <root>
                <mxCell id="0"/>
                <mxCell id="1" parent="0"/>
                <mxCell id="ZwAHkQaO1oAhDAV0Zob3-1" value="Operation" style="rounded=1;whiteSpace=wrap;html=1;" vertex="1" parent="1">
                    <mxGeometry x="365" y="140" width="85" height="40" as="geometry"/>
                </mxCell>
                <mxCell id="ZwAHkQaO1oAhDAV0Zob3-2" value="Operation" style="rounded=1;whiteSpace=wrap;html=1;" vertex="1" parent="1">
                    <mxGeometry x="365" y="220" width="85" height="40" as="geometry"/>
                </mxCell>
                <mxCell id="ZwAHkQaO1oAhDAV0Zob3-3" value="Operation" style="rounded=1;whiteSpace=wrap;html=1;" vertex="1" parent="1">
                    <mxGeometry x="365" y="300" width="85" height="40" as="geometry"/>
                </mxCell>
                <mxCell id="ZwAHkQaO1oAhDAV0Zob3-4" value="Operation" style="rounded=1;whiteSpace=wrap;html=1;" vertex="1" parent="1">
                    <mxGeometry x="365" y="380" width="85" height="40" as="geometry"/>
                </mxCell>
                <mxCell id="ZwAHkQaO1oAhDAV0Zob3-5" value="Operation" style="rounded=1;whiteSpace=wrap;html=1;" vertex="1" parent="1">
                    <mxGeometry x="365" y="460" width="85" height="40" as="geometry"/>
                </mxCell>
                <mxCell id="ZwAHkQaO1oAhDAV0Zob3-6" value="Operation" style="rounded=1;whiteSpace=wrap;html=1;" vertex="1" parent="1">
                    <mxGeometry x="365" y="540" width="85" height="40" as="geometry"/>
                </mxCell>
                <mxCell id="ZwAHkQaO1oAhDAV0Zob3-7" value="Operation" style="rounded=1;whiteSpace=wrap;html=1;" vertex="1" parent="1">
                    <mxGeometry x="365" y="620" width="85" height="40" as="geometry"/>
                </mxCell>
                <mxCell id="ZwAHkQaO1oAhDAV0Zob3-21" style="edgeStyle=none;html=1;entryX=0;entryY=0.5;entryDx=0;entryDy=0;" edge="1" parent="1" source="ZwAHkQaO1oAhDAV0Zob3-8" target="ZwAHkQaO1oAhDAV0Zob3-1">
                    <mxGeometry relative="1" as="geometry"/>
                </mxCell>
                <mxCell id="ZwAHkQaO1oAhDAV0Zob3-8" value="Thread" style="shape=umlActor;verticalLabelPosition=bottom;verticalAlign=top;html=1;outlineConnect=0;" vertex="1" parent="1">
                    <mxGeometry x="70" y="130" width="30" height="60" as="geometry"/>
                </mxCell>
                <mxCell id="ZwAHkQaO1oAhDAV0Zob3-20" style="edgeStyle=none;html=1;entryX=0;entryY=0.5;entryDx=0;entryDy=0;" edge="1" parent="1" source="ZwAHkQaO1oAhDAV0Zob3-9" target="ZwAHkQaO1oAhDAV0Zob3-2">
                    <mxGeometry relative="1" as="geometry"/>
                </mxCell>
                <mxCell id="ZwAHkQaO1oAhDAV0Zob3-9" value="Thread" style="shape=umlActor;verticalLabelPosition=bottom;verticalAlign=top;html=1;outlineConnect=0;" vertex="1" parent="1">
                    <mxGeometry x="70" y="210" width="30" height="60" as="geometry"/>
                </mxCell>
                <mxCell id="ZwAHkQaO1oAhDAV0Zob3-19" style="edgeStyle=none;html=1;entryX=0;entryY=0.5;entryDx=0;entryDy=0;" edge="1" parent="1" source="ZwAHkQaO1oAhDAV0Zob3-10" target="ZwAHkQaO1oAhDAV0Zob3-3">
                    <mxGeometry relative="1" as="geometry"/>
                </mxCell>
                <mxCell id="ZwAHkQaO1oAhDAV0Zob3-10" value="Thread" style="shape=umlActor;verticalLabelPosition=bottom;verticalAlign=top;html=1;outlineConnect=0;" vertex="1" parent="1">
                    <mxGeometry x="70" y="290" width="30" height="60" as="geometry"/>
                </mxCell>
                <mxCell id="ZwAHkQaO1oAhDAV0Zob3-18" style="edgeStyle=none;html=1;entryX=0;entryY=0.5;entryDx=0;entryDy=0;" edge="1" parent="1" source="ZwAHkQaO1oAhDAV0Zob3-11" target="ZwAHkQaO1oAhDAV0Zob3-4">
                    <mxGeometry relative="1" as="geometry"/>
                </mxCell>
                <mxCell id="ZwAHkQaO1oAhDAV0Zob3-11" value="Thread" style="shape=umlActor;verticalLabelPosition=bottom;verticalAlign=top;html=1;outlineConnect=0;" vertex="1" parent="1">
                    <mxGeometry x="70" y="370" width="30" height="60" as="geometry"/>
                </mxCell>
                <mxCell id="ZwAHkQaO1oAhDAV0Zob3-17" style="edgeStyle=none;html=1;entryX=0;entryY=0.5;entryDx=0;entryDy=0;" edge="1" parent="1" source="ZwAHkQaO1oAhDAV0Zob3-12" target="ZwAHkQaO1oAhDAV0Zob3-5">
                    <mxGeometry relative="1" as="geometry"/>
                </mxCell>
                <mxCell id="ZwAHkQaO1oAhDAV0Zob3-12" value="Thread" style="shape=umlActor;verticalLabelPosition=bottom;verticalAlign=top;html=1;outlineConnect=0;" vertex="1" parent="1">
                    <mxGeometry x="70" y="450" width="30" height="60" as="geometry"/>
                </mxCell>
                <mxCell id="ZwAHkQaO1oAhDAV0Zob3-15" style="edgeStyle=none;html=1;" edge="1" parent="1" source="ZwAHkQaO1oAhDAV0Zob3-13" target="ZwAHkQaO1oAhDAV0Zob3-6">
                    <mxGeometry relative="1" as="geometry"/>
                </mxCell>
                <mxCell id="ZwAHkQaO1oAhDAV0Zob3-13" value="Thread" style="shape=umlActor;verticalLabelPosition=bottom;verticalAlign=top;html=1;outlineConnect=0;" vertex="1" parent="1">
                    <mxGeometry x="70" y="530" width="30" height="60" as="geometry"/>
                </mxCell>
                <mxCell id="ZwAHkQaO1oAhDAV0Zob3-16" style="edgeStyle=none;html=1;" edge="1" parent="1" source="ZwAHkQaO1oAhDAV0Zob3-14" target="ZwAHkQaO1oAhDAV0Zob3-7">
                    <mxGeometry relative="1" as="geometry"/>
                </mxCell>
                <mxCell id="ZwAHkQaO1oAhDAV0Zob3-14" value="Thread" style="shape=umlActor;verticalLabelPosition=bottom;verticalAlign=top;html=1;outlineConnect=0;" vertex="1" parent="1">
                    <mxGeometry x="70" y="610" width="30" height="60" as="geometry"/>
                </mxCell>
                <mxCell id="ZwAHkQaO1oAhDAV0Zob3-36" value="Thread" style="shape=umlActor;verticalLabelPosition=bottom;verticalAlign=top;html=1;outlineConnect=0;" vertex="1" parent="1">
                    <mxGeometry x="60" y="930" width="30" height="60" as="geometry"/>
                </mxCell>
                <mxCell id="ZwAHkQaO1oAhDAV0Zob3-37" value="Thread" style="shape=umlActor;verticalLabelPosition=bottom;verticalAlign=top;html=1;outlineConnect=0;" vertex="1" parent="1">
                    <mxGeometry x="60" y="1010" width="30" height="60" as="geometry"/>
                </mxCell>
                <mxCell id="ZwAHkQaO1oAhDAV0Zob3-38" value="Thread" style="shape=umlActor;verticalLabelPosition=bottom;verticalAlign=top;html=1;outlineConnect=0;" vertex="1" parent="1">
                    <mxGeometry x="60" y="1090" width="30" height="60" as="geometry"/>
                </mxCell>
                <mxCell id="ZwAHkQaO1oAhDAV0Zob3-39" value="Thread" style="shape=umlActor;verticalLabelPosition=bottom;verticalAlign=top;html=1;outlineConnect=0;" vertex="1" parent="1">
                    <mxGeometry x="60" y="1170" width="30" height="60" as="geometry"/>
                </mxCell>
                <mxCell id="ZwAHkQaO1oAhDAV0Zob3-40" value="Thread" style="shape=umlActor;verticalLabelPosition=bottom;verticalAlign=top;html=1;outlineConnect=0;" vertex="1" parent="1">
                    <mxGeometry x="60" y="1250" width="30" height="60" as="geometry"/>
                </mxCell>
                <mxCell id="ZwAHkQaO1oAhDAV0Zob3-41" value="Thread" style="shape=umlActor;verticalLabelPosition=bottom;verticalAlign=top;html=1;outlineConnect=0;" vertex="1" parent="1">
                    <mxGeometry x="60" y="1330" width="30" height="60" as="geometry"/>
                </mxCell>
                <mxCell id="ZwAHkQaO1oAhDAV0Zob3-43" value=".NET" style="swimlane;whiteSpace=wrap;html=1;" vertex="1" parent="1">
                    <mxGeometry x="220" y="830" width="400" height="580" as="geometry"/>
                </mxCell>
                <mxCell id="ZwAHkQaO1oAhDAV0Zob3-22" value="Task" style="rounded=1;whiteSpace=wrap;html=1;" vertex="1" parent="ZwAHkQaO1oAhDAV0Zob3-43">
                    <mxGeometry x="80" y="70" width="85" height="40" as="geometry"/>
                </mxCell>
                <mxCell id="ZwAHkQaO1oAhDAV0Zob3-23" value="Task" style="rounded=1;whiteSpace=wrap;html=1;" vertex="1" parent="ZwAHkQaO1oAhDAV0Zob3-43">
                    <mxGeometry x="80" y="137" width="85" height="40" as="geometry"/>
                </mxCell>
                <mxCell id="ZwAHkQaO1oAhDAV0Zob3-24" value="Task" style="rounded=1;whiteSpace=wrap;html=1;" vertex="1" parent="ZwAHkQaO1oAhDAV0Zob3-43">
                    <mxGeometry x="80" y="203" width="85" height="40" as="geometry"/>
                </mxCell>
                <mxCell id="ZwAHkQaO1oAhDAV0Zob3-25" value="Task" style="rounded=1;whiteSpace=wrap;html=1;" vertex="1" parent="ZwAHkQaO1oAhDAV0Zob3-43">
                    <mxGeometry x="80" y="270" width="85" height="40" as="geometry"/>
                </mxCell>
                <mxCell id="ZwAHkQaO1oAhDAV0Zob3-26" value="Task" style="rounded=1;whiteSpace=wrap;html=1;" vertex="1" parent="ZwAHkQaO1oAhDAV0Zob3-43">
                    <mxGeometry x="80" y="337" width="85" height="40" as="geometry"/>
                </mxCell>
                <mxCell id="ZwAHkQaO1oAhDAV0Zob3-27" value="Task" style="rounded=1;whiteSpace=wrap;html=1;" vertex="1" parent="ZwAHkQaO1oAhDAV0Zob3-43">
                    <mxGeometry x="80" y="403" width="85" height="40" as="geometry"/>
                </mxCell>
                <mxCell id="ZwAHkQaO1oAhDAV0Zob3-28" value="Task" style="rounded=1;whiteSpace=wrap;html=1;" vertex="1" parent="ZwAHkQaO1oAhDAV0Zob3-43">
                    <mxGeometry x="80" y="470" width="85" height="40" as="geometry"/>
                </mxCell>
                <mxCell id="ZwAHkQaO1oAhDAV0Zob3-29" value="Task" style="rounded=1;whiteSpace=wrap;html=1;" vertex="1" parent="ZwAHkQaO1oAhDAV0Zob3-43">
                    <mxGeometry x="205" y="70" width="85" height="40" as="geometry"/>
                </mxCell>
                <mxCell id="ZwAHkQaO1oAhDAV0Zob3-30" value="Task" style="rounded=1;whiteSpace=wrap;html=1;" vertex="1" parent="ZwAHkQaO1oAhDAV0Zob3-43">
                    <mxGeometry x="205" y="137" width="85" height="40" as="geometry"/>
                </mxCell>
                <mxCell id="ZwAHkQaO1oAhDAV0Zob3-31" value="Task" style="rounded=1;whiteSpace=wrap;html=1;" vertex="1" parent="ZwAHkQaO1oAhDAV0Zob3-43">
                    <mxGeometry x="205" y="203" width="85" height="40" as="geometry"/>
                </mxCell>
                <mxCell id="ZwAHkQaO1oAhDAV0Zob3-32" value="Task" style="rounded=1;whiteSpace=wrap;html=1;" vertex="1" parent="ZwAHkQaO1oAhDAV0Zob3-43">
                    <mxGeometry x="205" y="270" width="85" height="40" as="geometry"/>
                </mxCell>
                <mxCell id="ZwAHkQaO1oAhDAV0Zob3-33" value="Task" style="rounded=1;whiteSpace=wrap;html=1;" vertex="1" parent="ZwAHkQaO1oAhDAV0Zob3-43">
                    <mxGeometry x="205" y="337" width="85" height="40" as="geometry"/>
                </mxCell>
                <mxCell id="ZwAHkQaO1oAhDAV0Zob3-34" value="Task" style="rounded=1;whiteSpace=wrap;html=1;" vertex="1" parent="ZwAHkQaO1oAhDAV0Zob3-43">
                    <mxGeometry x="205" y="403" width="85" height="40" as="geometry"/>
                </mxCell>
                <mxCell id="ZwAHkQaO1oAhDAV0Zob3-35" value="Task" style="rounded=1;whiteSpace=wrap;html=1;" vertex="1" parent="ZwAHkQaO1oAhDAV0Zob3-43">
                    <mxGeometry x="205" y="470" width="85" height="40" as="geometry"/>
                </mxCell>
            </root>
        </mxGraphModel>
    </diagram>
</mxfile>